# xmcd CD database file
#
# Track frame offsets:
#	168
#	16172
#	29768
#	44014
#	56290
#	71985
#	85149
#	99185
#	111638
#	122918
#	134806
#	148683
#	165719
#	179675
#	190103
#	203710
#	214491
#	225544
#	243581
#	253126
#
# Disc length: 3545 seconds
#
# Revision: 0
# Processed by: cddbd v1.5.2PL0 Copyright (c) Steve Scherf et al.
# Submitted via: CDex 1.77
#
DISCID=3a0dd714
DTITLE=Eartha Kitt - The Essential Recordings - Disk 1
DYEAR=1900
DGENRE=Jazz
TTITLE0=I Want to Be Evil
TTITLE1=C'Est Si Bon
TTITLE2=Uska Dara (A Turkish Tale)
TTITLE3=Under The Bridges Of Paris
TTITLE4=Angelitos Negros
TTITLE5=Avril Au Portugal (The Whispering Serenade)
TTITLE6=Let's Do It (Let's Fall In Love)
TTITLE7=Apres Moi
TTITLE8=If I Love Ya, Then I Need Ya, If I Need Ya, I Want'cha Around
TTITLE9=Hey Jacque
TTITLE10=My Heart Belongs To Daddy
TTITLE11=Lilac Wine (Dance Me A Song)
TTITLE12=Smoke Gets In Your Eyes
TTITLE13=My Heart's Delight
TTITLE14=Looking For a Boy
TTITLE15=I've Got That Lovin' Bug Itch
TTITLE16=Fascinating Man
TTITLE17=Thursday's Child
TTITLE18=Love Is A Gamble
TTITLE19=Santa Baby
EXTD=
EXTT0=
EXTT1=
EXTT2=
EXTT3=
EXTT4=
EXTT5=
EXTT6=
EXTT7=
EXTT8=
EXTT9=
EXTT10=
EXTT11=
EXTT12=
EXTT13=
EXTT14=
EXTT15=
EXTT16=
EXTT17=
EXTT18=
EXTT19=
PLAYORDER=
